#!OML:ASF F:\Work\Patient Classification 1\justin\Session 1\justin.ASF
:FULLY-SPECIFIED
:DEGREES
1
root 0.741385 17.7043 -2.62515 -3.20455 12.6357 -4.73752
lowerback 8.50507 -1.64919 -0.803095
upperback -0.253411 -2.07223 3.99623
thorax -4.86222 -0.95435 4.89323
lowerneck -10.2151 -12.165 -20.0139
upperneck 17.5164 -16.6812 16.1808
head 10.4029 -7.79735 6.61915
rclavicle -1.758e-014 -1.07344e-014
rhumerus -27.7391 -0.189139 -75.0823
rradius 99.0005
rwrist -2.44856
rhand -20.2378 21.2831
rfingers 7.12502
rthumb 6.11025 -8.60883
lclavicle -1.758e-014 -1.07344e-014
lhumerus -21.6898 -14.6973 90.1038
lradius 92.7969
lwrist -0.453765
lhand -15.9112 17.0196
lfingers 7.12502
lthumb 10.2858 46.7481
rfemur -15.0955 -0.0534079 22.695
rtibia 39.6819
rfoot -16.8923 -2.23761
rtoes -11.224
lfemur -5.90459 0.856664 -15.4159
ltibia 35.9504
lfoot -22.9239 -1.15928
ltoes -10.5001
2
root 0.755901 17.6969 -2.63765 -3.19493 12.6263 -4.53828
lowerback 8.46 -1.60426 -0.970976
upperback -0.0761834 -2.04114 3.85995
thorax -4.65283 -0.942822 4.83256
lowerneck -10.7525 -12.2674 -19.7462
upperneck 17.6378 -16.7644 16.0616
head 10.5265 -7.79836 6.49252
rclavicle 3.64149e-014 -3.61788e-014
rhumerus -26.8798 -0.228409 -75.1297
rradius 100.181
rwrist -2.67614
rhand -20.2239 21.3656
rfingers 7.12502
rthumb 6.12365 -8.52594
lclavicle 3.64149e-014 -3.61788e-014
lhumerus -20.7168 -14.8275 89.7499
lradius 93.9731
lwrist -0.26803
lhand -15.702 16.6593
lfingers 7.12502
lthumb 10.4876 46.3777
rfemur -15.265 -0.00432208 22.4157
rtibia 39.9837
rfoot -16.9011 -2.27702
rtoes -11.393
lfemur -5.93072 0.898407 -15.696
ltibia 35.9829
lfoot -22.9003 -1.17386
ltoes -10.4723
3
root 0.772888 17.6918 -2.64853 -3.30111 12.4931 -4.47282
lowerback 8.31366 -1.50081 -1.17612
upperback -0.174756 -1.92523 3.81251
thorax -4.67886 -0.879535 4.88241
lowerneck -9.59274 -12.0306 -19.7135
upperneck 17.1806 -16.6101 16.1687
head 10.1212 -7.78162 6.60592
rclavicle -2.34566e-014 1.19271e-015
rhumerus -26.8196 -0.0326806 -74.9907
rradius 101.519
rwrist -2.95801
rhand -20.4691 21.5549
rfingers 7.12502
rthumb 5.88693 -8.34331
lclavicle -2.34566e-014 1.19271e-015
lhumerus -21.0617 -14.9578 89.7639
lradius 95.2587
lwrist -0.155848
lhand -16.1659 15.884
lfingers 7.12502
lthumb 10.0401 45.6245
rfemur -15.3433 0.0236376 22.2875
rtibia 40.2545
rfoot -16.8585 -2.22976
rtoes -11.5429
lfemur -5.82222 0.978776 -15.8323
ltibia 36.027
lfoot -22.9816 -1.11024
ltoes -10.9715
4
root 0.795265 17.6896 -2.65874 -3.43652 12.4631 -4.56214
lowerback 8.31093 -1.46683 -1.13937
upperback -0.212662 -1.8724 3.87167
thorax -4.72117 -0.852108 4.91905
lowerneck -9.31559 -12.0015 -19.775
upperneck 17.1291 -16.5646 16.0108
head 10.0312 -7.79187 6.57801
rclavicle -2.73018e-014 1.98785e-014
rhumerus -26.368 0.151434 -74.6779
rradius 102.854
rwrist -3.04576
rhand -20.499 21.4093
rfingers 7.12502
rthumb 5.85806 -8.48975
lclavicle -2.73018e-014 1.98785e-014
lhumerus -19.6836 -15.1288 89.7449
lradius 96.1362
lwrist 0.0712232
lhand -16.3654 15.8581
lfingers 7.12502
lthumb 9.84765 45.6078
rfemur -15.3845 -0.106907 22.3003
rtibia 40.5256
rfoot -16.8247 -2.13728
rtoes -11.3975
lfemur -5.70833 1.10744 -15.7841
ltibia 36.0536
lfoot -23.046 -1.17386
ltoes -11.7917
5
root 0.81843 17.6857 -2.66733 -3.50876 12.4903 -4.53262
lowerback 8.38299 -1.48979 -1.10235
upperback -0.20219 -1.90024 3.84446
thorax -4.75028 -0.866645 4.87515
lowerneck -9.48591 -12.0726 -19.8228
upperneck 17.2916 -16.6216 15.8958
head 10.1248 -7.82049 6.52608
rclavicle -3.35449e-016 -1.51076e-014
rhumerus -25.5962 0.204117 -74.5342
rradius 104.071
rwrist -2.8551
rhand -20.1578 21.0553
rfingers 7.12502
rthumb 6.18752 -8.83436
lclavicle -3.35449e-016 -1.51076e-014
lhumerus -18.6099 -15.2937 89.5641
lradius 97.338
lwrist 0.230349
lhand -16.1278 15.7794
lfingers 7.12502
lthumb 10.0769 45.5181
rfemur -15.4275 -0.266818 22.1684
rtibia 40.8053
rfoot -16.8919 -2.02422
rtoes -11.2371
lfemur -5.61589 1.25617 -15.8569
ltibia 36.0669
lfoot -23.0616 -1.32189
ltoes -12.073
6
root 0.840387 17.6799 -2.67325 -3.54081 12.5004 -4.2826
lowerback 8.46681 -1.55353 -1.22471
upperback -0.0114459 -2.00676 3.73073
thorax -4.58776 -0.92369 4.83437
lowerneck -10.3076 -12.149 -19.8773
upperneck 17.5595 -16.6192 15.9678
head 10.3872 -7.77274 6.52663
rclavicle -3.46382e-014 2.3059e-014
rhumerus -24.5486 0.410706 -74.6395
rradius 105.149
rwrist -2.92902
rhand -20.7564 21.7893
rfingers 7.12502
rthumb 5.60952 -8.11641
lclavicle -3.46382e-014 2.3059e-014
lhumerus -17.369 -15.3619 89.2412
lradius 98.6018
lwrist 0.345054
lhand -16.0753 16.4398
lfingers 7.12502
lthumb 10.1275 46.1761
rfemur -15.4707 -0.373018 21.7933
rtibia 41.1002
rfoot -16.9981 -1.92643
rtoes -11.2921
lfemur -5.49838 1.31972 -16.1974
ltibia 36.0707
lfoot -23.1059 -1.4172
ltoes -11.7387
7
root 0.860645 17.6757 -2.68397 -3.54269 12.4229 -4.04322
lowerback 8.61091 -1.45505 -1.43872
upperback -0.111667 -1.9009 3.59202
thorax -4.78105 -0.862561 4.80634
lowerneck -10.0316 -12.0648 -19.8189
upperneck 17.4723 -16.5751 16.0708
head 10.3001 -7.7558 6.577
rclavicle 1.52381e-014 -1.66979e-014
rhumerus -24.1817 0.49103 -74.6407
rradius 106.18
rwrist -3.01766
rhand -22.5204 23.9137
rfingers 7.12502
rthumb 3.90622 -6.03026
lclavicle 1.52381e-014 -1.66979e-014
lhumerus -16.6807 -15.7907 89.2052
lradius 99.787
lwrist 0.933059
lhand -16.6672 16.9555
lfingers 7.12502
lthumb 9.55648 46.7188
rfemur -15.6291 -0.375049 21.4489
rtibia 41.4156
rfoot -16.9443 -1.90571
rtoes -11.359
lfemur -5.46702 1.35672 -16.5437
ltibia 36.0804
lfoot -23.127 -1.45504
ltoes -11.1951
8
root 0.883086 17.6725 -2.69842 -3.6146 12.2824 -3.96815
lowerback 8.92809 -1.42351 -1.40179
upperback -0.0952355 -1.85523 3.56216
thorax -4.9487 -0.837698 4.76087
lowerneck -10.7775 -12.1716 -19.8781
upperneck 17.8789 -16.5923 15.9075
head 10.5789 -7.7396 6.4939
rclavicle -5.50882e-014 2.70347e-014
rhumerus -23.205 0.689475 -74.531
rradius 107.17
rwrist -3.04144
rhand -23.6195 25.384
rfingers 7.12502
rthumb 2.84486 -4.57677
lclavicle -5.50882e-014 2.70347e-014
lhumerus -15.7958 -15.7346 89.0917
lradius 100.849
lwrist 1.54678
lhand -17.2832 16.5533
lfingers 7.12502
lthumb 8.96209 46.343
rfemur -15.7593 -0.39357 21.2763
rtibia 41.7277
rfoot -16.8202 -1.78891
rtoes -10.9058
lfemur -5.40704 1.34838 -16.7211
ltibia 36.1084
lfoot -23.1608 -1.47818
ltoes -10.4754
9
root 0.904873 17.6665 -2.71022 -3.73778 12.2712 -3.96549
lowerback 9.10837 -1.41928 -1.35134
upperback -0.333352 -1.84307 3.48277
thorax -5.30554 -0.823538 4.6618
lowerneck -10.1218 -12.0314 -19.806
upperneck 17.9897 -16.497 15.7077
head 10.4467 -7.74273 6.46152
rclavicle -1.07779e-014 -2.46493e-014
rhumerus -23.0087 0.552779 -74.4318
rradius 108.867
rwrist -3.45036
rhand -21.1736 23.3034
rfingers 7.12502
rthumb 5.20675 -6.6126
lclavicle -1.07779e-014 -2.46493e-014
lhumerus -15.6165 -15.8171 89.0194
lradius 101.919
lwrist 1.96571
lhand -17.6164 15.9187
lfingers 7.12502
lthumb 8.64054 45.7218
rfemur -15.8077 -0.531571 21.1732
rtibia 42.0357
rfoot -16.7872 -1.66686
rtoes -10.4639
lfemur -5.30141 1.29702 -16.7952
ltibia 36.1586
lfoot -23.1245 -1.52526
ltoes -10.4581
10
root 0.91702 17.6605 -2.71589 -3.81496 12.346 -3.98575
lowerback 9.09447 -1.43296 -1.36825
upperback -0.541059 -1.86565 3.37475
thorax -5.51709 -0.828918 4.5662
lowerneck -9.19923 -11.7706 -19.7423
upperneck 17.8026 -16.3183 15.8488
head 10.1771 -7.6952 6.58152
rclavicle 2.3e-015 -6.36111e-015
rhumerus -22.731 0.396613 -74.4635
rradius 110.752
rwrist -5.77958
rhand -17.5665 20.9417
rfingers 7.12502
rthumb 8.68867 -8.85952
lclavicle 2.3e-015 -6.36111e-015
lhumerus -15.0697 -16.107 88.7597
lradius 102.994
lwrist 2.47728
lhand -17.6784 15.8734
lfingers 7.12502
lthumb 8.58066 45.679
rfemur -15.9096 -0.540096 21.1538
rtibia 42.3309
rfoot -16.7914 -1.76706
rtoes -10.2556
lfemur -5.28317 1.32408 -16.7854
ltibia 36.216
lfoot -23.2194 -1.70504
ltoes -10.1272
11
root 0.928933 17.6547 -2.71968 -3.92388 12.3501 -3.99701
lowerback 9.15378 -1.431 -1.42596
upperback -0.608291 -1.8714 3.31761
thorax -5.62094 -0.827949 4.54397
lowerneck -8.67289 -11.5612 -19.8197
upperneck 17.594 -16.1587 16.1989
head 10.0135 -7.62831 6.77688
rclavicle 3.2551e-014 -2.46493e-014
rhumerus -22.1259 0.626122 -74.5176
rradius 111.524
rwrist -5.69469
rhand -18.5074 21.604
rfingers 7.12502
rthumb 7.78061 -8.23284
lclavicle 3.2551e-014 -2.46493e-014
lhumerus -14.136 -16.2708 88.4785
lradius 104.105
lwrist 2.81847
lhand -17.0907 16.154
lfingers 7.12502
lthumb 9.14787 45.9356
rfemur -15.9635 -0.461467 21.1363
rtibia 42.6424
rfoot -16.8148 -1.90359
rtoes -10.0755
lfemur -5.22846 1.37814 -16.7986
ltibia 36.2713
lfoot -23.189 -1.79974
ltoes -10.2627
12
root 0.95349 17.649 -2.73548 -4.02817 12.2838 -3.9293
lowerback 9.41726 -1.40722 -1.41656
upperback -0.60684 -1.8398 3.28289
thorax -5.77262 -0.809837 4.50859
lowerneck -8.73372 -11.5083 -19.9215
upperneck 17.7121 -16.0984 16.3173
head 10.0755 -7.59458 6.84902
rclavicle -3.57036e-015 -1.59028e-015
rhumerus -21.3155 0.700141 -74.3661
rradius 112.594
rwrist -5.93605
rhand -18.4587 21.1118
rfingers 7.12502
rthumb 7.82758 -8.72327
lclavicle -3.57036e-015 -1.59028e-015
lhumerus -13.258 -16.3319 88.4125
lradius 105.144
lwrist 3.41505
lhand -16.8199 16.18
lfingers 7.12502
lthumb 9.40915 45.9499
rfemur -16.0789 -0.564446 20.9452
rtibia 42.9914
rfoot -16.7506 -1.82263
rtoes -10.2872
lfemur -5.16469 1.39883 -16.9751
ltibia 36.3556
lfoot -23.1705 -1.85697
ltoes -10.0067
13
root 0.988731 17.6413 -2.76482 -3.97057 12.3113 -3.65689
lowerback 9.65298 -1.38717 -1.44855
upperback -0.650097 -1.82149 3.18148
thorax -5.95544 -0.796944 4.42794
lowerneck -9.0404 -11.5301 -19.9526
upperneck 18.0084 -16.0725 16.1755
head 10.222 -7.57876 6.79813
rclavicle 2.9664e-014 -2.38542e-015
rhumerus -20.4994 0.588485 -74.1291
rradius 113.729
rwrist -6.3661
rhand -17.7343 20.595
rfingers 7.12502
rthumb 8.5268 -9.21286
lclavicle 2.9664e-014 -2.38542e-015
lhumerus -12.5296 -16.4597 88.4766
lradius 106.126
lwrist 4.17723
lhand -17.083 15.9341
lfingers 7.12502
lthumb 9.15527 45.7153
rfemur -16.4492 -1.03761 20.4154
rtibia 43.4014
rfoot -16.527 -1.37643
rtoes -10.6219
lfemur -5.25865 1.29784 -17.4742
ltibia 36.439
lfoot -23.1634 -1.76341
ltoes -9.83299
14
root 1.00535 17.6294 -2.77905 -3.88808 12.28 -3.45297
lowerback 9.58634 -1.33987 -1.69949
upperback -0.612157 -1.78879 3.17322
thorax -5.87328 -0.775412 4.5533
lowerneck -9.41745 -11.58 -19.9305
upperneck 18.1998 -16.034 15.8995
head 10.3243 -7.56123 6.68422
rclavicle 4.15895e-014 3.97569e-016
rhumerus -19.6103 0.497854 -73.8869
rradius 114.964
rwrist -7.18489
rhand -16.4103 19.3084
rfingers 7.12502
rthumb 9.80429 -10.4433
lclavicle 4.15895e-014 3.97569e-016
lhumerus -11.6085 -16.4955 88.4535
lradius 107.069
lwrist 4.80034
lhand -17.3228 15.6002
lfingers 7.12502
lthumb 8.92383 45.3914
rfemur -16.8504 -1.16792 20.1069
rtibia 43.8793
rfoot -16.365 -1.26588
rtoes -11.0062
lfemur -5.37511 1.27687 -17.7937
ltibia 36.5083
lfoot -23.2403 -1.63029
ltoes -10.1858
